<svg width="250.35" height="32.701" viewBox="0 0 250.35 32.701" xmlns="http://www.w3.org/2000/svg"><g id="svgGroup" stroke-linecap="round" fill-rule="evenodd" font-size="9pt" stroke="#524a4a" stroke-width="0.3mm" fill="#000" style="stroke:#524a4a;stroke-width:0.3mm;fill:#000"><path d="M 200.97 14.13 L 196.56 25.2 L 195.45 25.2 L 191.55 12.72 A 17.674 17.674 0 0 0 191.368 12.181 Q 191.283 11.943 191.201 11.74 A 7.27 7.27 0 0 0 191.04 11.37 Q 190.8 10.86 190.47 10.56 Q 190.14 10.26 189.69 10.155 A 3.536 3.536 0 0 0 189.323 10.091 Q 189.122 10.066 188.89 10.056 A 7.37 7.37 0 0 0 188.58 10.05 L 188.58 9 L 196.53 9 L 196.53 10.05 Q 195.36 10.05 194.88 10.32 A 0.902 0.902 0 0 0 194.423 10.978 A 1.501 1.501 0 0 0 194.4 11.25 A 2.468 2.468 0 0 0 194.415 11.511 Q 194.428 11.638 194.454 11.78 A 4.788 4.788 0 0 0 194.49 11.955 Q 194.578 12.35 194.723 12.931 A 66.95 66.95 0 0 0 194.73 12.96 L 196.77 20.13 L 196.89 20.13 L 201.3 9 L 202.23 9 L 206.22 20.13 L 206.34 20.13 L 208.14 15.27 Q 208.499 14.283 208.739 13.609 A 48.251 48.251 0 0 1 208.74 13.605 A 31.699 31.699 0 0 0 208.853 13.281 Q 209.011 12.821 209.112 12.476 A 10.557 10.557 0 0 0 209.115 12.465 A 15.621 15.621 0 0 0 209.178 12.243 Q 209.253 11.97 209.297 11.765 A 4.971 4.971 0 0 0 209.31 11.7 A 3.124 3.124 0 0 0 209.362 11.337 A 2.592 2.592 0 0 0 209.37 11.13 Q 209.37 10.772 209.255 10.546 A 0.651 0.651 0 0 0 208.98 10.26 A 1.127 1.127 0 0 0 208.737 10.169 Q 208.331 10.062 207.535 10.051 A 13.359 13.359 0 0 0 207.36 10.05 L 207.36 9 L 213.36 9 L 213.36 10.05 Q 212.973 10.05 212.685 10.15 A 1.386 1.386 0 0 0 212.595 10.185 A 1.226 1.226 0 0 0 212.339 10.337 Q 212.228 10.421 212.117 10.537 A 2.715 2.715 0 0 0 211.965 10.71 Q 211.753 10.972 211.535 11.383 A 8.323 8.323 0 0 0 211.32 11.82 Q 211.025 12.464 210.61 13.468 A 94.041 94.041 0 0 0 210.51 13.71 L 205.86 25.2 L 204.75 25.2 L 201.09 14.13 L 200.97 14.13 Z M 106.74 24.57 L 106.29 17.85 L 107.4 17.85 A 7.931 7.931 0 0 0 107.823 19.469 A 6.806 6.806 0 0 0 108.195 20.28 A 6.356 6.356 0 0 0 109.488 21.954 A 6.03 6.03 0 0 0 109.665 22.11 A 6.386 6.386 0 0 0 111.669 23.252 A 7.215 7.215 0 0 0 111.705 23.265 A 7.272 7.272 0 0 0 113.626 23.65 A 8.595 8.595 0 0 0 114.21 23.67 A 7.596 7.596 0 0 0 115.626 23.546 Q 116.445 23.39 117.091 23.04 A 4.058 4.058 0 0 0 117.72 22.62 A 3.409 3.409 0 0 0 118.997 20.128 A 4.722 4.722 0 0 0 119.01 19.77 A 3.854 3.854 0 0 0 118.905 18.858 A 3.356 3.356 0 0 0 118.755 18.39 A 3.134 3.134 0 0 0 118.373 17.714 A 4.339 4.339 0 0 0 117.9 17.175 A 5.864 5.864 0 0 0 117.346 16.702 Q 117.062 16.487 116.722 16.275 A 11.34 11.34 0 0 0 116.295 16.02 A 18.675 18.675 0 0 0 115.467 15.58 Q 115.092 15.391 114.665 15.194 A 38.155 38.155 0 0 0 113.76 14.79 A 37.866 37.866 0 0 1 112.449 14.191 Q 111.428 13.699 110.64 13.23 A 11.596 11.596 0 0 1 109.7 12.611 Q 109.075 12.151 108.63 11.67 A 5.377 5.377 0 0 1 107.94 10.753 A 4.411 4.411 0 0 1 107.565 9.945 A 5.641 5.641 0 0 1 107.31 8.835 A 7.554 7.554 0 0 1 107.25 7.86 A 6.744 6.744 0 0 1 107.484 6.062 A 6.05 6.05 0 0 1 107.745 5.31 Q 108.24 4.14 109.14 3.285 A 6.253 6.253 0 0 1 111.191 1.995 A 7.135 7.135 0 0 1 111.27 1.965 Q 112.5 1.5 113.97 1.5 A 7.317 7.317 0 0 1 115.775 1.717 A 6.554 6.554 0 0 1 116.43 1.92 A 7.304 7.304 0 0 1 117.65 2.51 A 10.019 10.019 0 0 1 118.74 3.27 L 119.52 1.92 L 120.21 1.92 L 120.54 7.89 L 119.43 7.89 A 10.983 10.983 0 0 0 118.859 6.348 Q 118.492 5.558 118.027 4.959 A 5.278 5.278 0 0 0 117.345 4.23 A 4.788 4.788 0 0 0 114.15 3.031 A 6.082 6.082 0 0 0 114.06 3.03 Q 112.23 3.03 111.15 3.93 Q 110.07 4.83 110.07 6.36 A 3.734 3.734 0 0 0 110.146 7.127 A 3.076 3.076 0 0 0 110.31 7.665 A 2.981 2.981 0 0 0 110.701 8.339 A 3.931 3.931 0 0 0 111.09 8.775 Q 111.543 9.216 112.229 9.657 A 11.322 11.322 0 0 0 112.5 9.825 Q 113.37 10.35 114.66 10.92 A 54.355 54.355 0 0 1 116.22 11.644 Q 116.972 12.008 117.612 12.352 A 25.703 25.703 0 0 1 118.35 12.765 Q 119.82 13.62 120.69 14.475 A 5.977 5.977 0 0 1 121.394 15.296 A 4.464 4.464 0 0 1 121.92 16.275 A 5.463 5.463 0 0 1 122.236 17.595 A 6.896 6.896 0 0 1 122.28 18.39 Q 122.28 19.89 121.68 21.15 Q 121.08 22.41 120 23.31 A 7.415 7.415 0 0 1 118.231 24.395 A 9.015 9.015 0 0 1 117.42 24.705 A 9.823 9.823 0 0 1 115.269 25.147 A 12.09 12.09 0 0 1 114.12 25.2 A 10.481 10.481 0 0 1 112.448 25.072 A 8.131 8.131 0 0 1 111.045 24.72 A 8.039 8.039 0 0 1 109.625 24.05 Q 108.995 23.677 108.355 23.168 A 13.408 13.408 0 0 1 108.27 23.1 L 107.43 24.57 L 106.74 24.57 Z M 9.57 15.78 L 3.57 5.52 Q 3.227 4.925 2.918 4.495 A 7.097 7.097 0 0 0 2.73 4.245 A 5.105 5.105 0 0 0 2.361 3.824 Q 2.15 3.609 1.935 3.45 A 2.419 2.419 0 0 0 1.37 3.135 A 2.154 2.154 0 0 0 1.08 3.045 Q 0.63 2.94 0 2.94 L 0 1.8 L 9.45 1.8 L 9.45 2.94 A 15.88 15.88 0 0 0 8.755 2.954 Q 8.126 2.982 7.711 3.064 A 2.542 2.542 0 0 0 7.335 3.165 Q 6.72 3.39 6.72 3.96 A 1.664 1.664 0 0 0 6.775 4.357 Q 6.914 4.919 7.41 5.76 L 12.06 13.71 L 12.18 13.71 L 15.57 8.01 A 47.096 47.096 0 0 0 16.015 7.243 Q 16.487 6.412 16.775 5.808 A 10.919 10.919 0 0 0 16.935 5.46 A 7.322 7.322 0 0 0 17.131 4.965 Q 17.34 4.37 17.34 3.96 A 1.156 1.156 0 0 0 17.302 3.652 A 0.753 0.753 0 0 0 16.905 3.165 Q 16.47 2.94 15.39 2.94 L 15.39 1.8 L 22.26 1.8 L 22.26 2.94 Q 21.63 2.94 21.135 3.12 A 2.114 2.114 0 0 0 20.725 3.326 Q 20.421 3.519 20.1 3.84 A 6.748 6.748 0 0 0 19.698 4.282 Q 19.513 4.504 19.317 4.768 A 15.283 15.283 0 0 0 18.915 5.34 A 33.487 33.487 0 0 0 18.575 5.857 Q 18.113 6.573 17.533 7.538 A 99.681 99.681 0 0 0 17.34 7.86 L 12.72 15.66 L 12.72 19.23 A 33.921 33.921 0 0 0 12.73 20.092 Q 12.751 20.918 12.816 21.503 A 9.579 9.579 0 0 0 12.825 21.585 Q 12.93 22.47 13.275 22.95 Q 13.62 23.43 14.265 23.595 A 4.298 4.298 0 0 0 14.711 23.682 Q 15.248 23.76 15.99 23.76 L 15.99 24.9 L 6.27 24.9 L 6.27 23.76 A 11.634 11.634 0 0 0 6.903 23.744 Q 7.552 23.708 7.995 23.595 Q 8.64 23.43 8.985 22.965 A 2.027 2.027 0 0 0 9.228 22.525 Q 9.318 22.308 9.379 22.043 A 4.513 4.513 0 0 0 9.45 21.66 A 9.695 9.695 0 0 0 9.513 21.082 Q 9.566 20.433 9.57 19.561 A 30.924 30.924 0 0 0 9.57 19.44 L 9.57 15.78 Z M 236.88 16.17 L 236.88 20.19 Q 236.88 21.42 236.94 22.125 A 3.649 3.649 0 0 0 236.997 22.533 Q 237.037 22.737 237.101 22.903 A 1.461 1.461 0 0 0 237.255 23.205 Q 237.51 23.58 238.005 23.7 Q 238.5 23.82 239.37 23.88 L 239.37 24.9 L 231.51 24.9 L 231.51 23.88 Q 232.35 23.82 232.845 23.7 A 1.5 1.5 0 0 0 233.241 23.546 A 1.208 1.208 0 0 0 233.61 23.22 Q 233.815 22.947 233.907 22.501 A 3.332 3.332 0 0 0 233.955 22.2 A 9.37 9.37 0 0 0 233.995 21.741 Q 234.03 21.184 234.03 20.4 L 234.03 16.41 A 112.54 112.54 0 0 0 234.024 15.169 Q 233.996 12.694 233.85 12.06 A 3.628 3.628 0 0 0 233.776 11.786 Q 233.734 11.654 233.686 11.542 A 1.823 1.823 0 0 0 233.625 11.415 Q 233.49 11.16 233.22 11.025 A 1.505 1.505 0 0 0 232.976 10.93 Q 232.853 10.894 232.71 10.87 A 3.027 3.027 0 0 0 232.53 10.845 A 6.661 6.661 0 0 0 232.213 10.819 Q 231.883 10.8 231.45 10.8 L 231.45 9.84 L 236.25 8.7 L 236.61 11.67 L 236.73 11.67 A 8.262 8.262 0 0 1 239.117 9.632 A 7.954 7.954 0 0 1 239.4 9.48 Q 240.93 8.7 242.73 8.7 A 7.35 7.35 0 0 1 244.284 8.859 A 6.175 6.175 0 0 1 245.25 9.15 A 4.955 4.955 0 0 1 246.087 9.57 Q 246.634 9.917 246.99 10.38 A 3.567 3.567 0 0 1 247.422 11.164 Q 247.57 11.529 247.668 11.962 A 6.419 6.419 0 0 1 247.71 12.165 A 9.362 9.362 0 0 1 247.821 12.93 Q 247.906 13.729 247.918 14.816 A 32.965 32.965 0 0 1 247.92 15.18 L 247.92 20.19 Q 247.92 21.301 247.981 21.984 A 8.565 8.565 0 0 0 247.995 22.125 A 4.095 4.095 0 0 0 248.058 22.533 Q 248.145 22.947 248.31 23.205 A 1.095 1.095 0 0 0 248.848 23.638 A 1.507 1.507 0 0 0 249.045 23.7 A 5.194 5.194 0 0 0 249.423 23.775 Q 249.62 23.808 249.852 23.834 A 13.072 13.072 0 0 0 250.35 23.88 L 250.35 24.9 L 242.58 24.9 L 242.58 23.88 A 9.9 9.9 0 0 0 243.071 23.851 Q 243.575 23.808 243.915 23.715 Q 244.41 23.58 244.665 23.22 Q 244.845 22.965 244.936 22.553 A 3.56 3.56 0 0 0 244.995 22.185 A 9.942 9.942 0 0 0 245.035 21.721 Q 245.068 21.2 245.07 20.5 A 31.966 31.966 0 0 0 245.07 20.4 L 245.07 16.44 A 27.049 27.049 0 0 0 245.045 15.233 Q 245.003 14.291 244.89 13.56 Q 244.757 12.694 244.501 12.075 A 3.755 3.755 0 0 0 244.305 11.67 Q 243.9 10.95 243.24 10.635 A 3.081 3.081 0 0 0 242.488 10.394 Q 242.149 10.329 241.762 10.321 A 5.349 5.349 0 0 0 241.65 10.32 Q 240.3 10.32 239.175 11.025 Q 238.05 11.73 237.42 12.96 A 7.387 7.387 0 0 0 237.258 13.306 A 5.925 5.925 0 0 0 237.165 13.53 A 2.668 2.668 0 0 0 237.074 13.813 Q 237.036 13.954 237.008 14.114 A 4.408 4.408 0 0 0 237 14.16 Q 236.94 14.52 236.91 14.985 A 12.22 12.22 0 0 0 236.893 15.335 Q 236.886 15.516 236.883 15.725 A 28.854 28.854 0 0 0 236.88 16.17 Z M 167.4 15.06 L 160.86 29.61 A 6.629 6.629 0 0 1 159.963 31.104 A 4.17 4.17 0 0 1 156.57 32.7 A 3.723 3.723 0 0 1 155.886 32.643 Q 154.68 32.416 154.68 31.29 A 1.685 1.685 0 0 1 154.731 30.861 A 1.105 1.105 0 0 1 155.205 30.195 A 2.09 2.09 0 0 1 155.546 30.019 Q 155.921 29.863 156.512 29.732 A 12.967 12.967 0 0 1 157.14 29.61 A 6.853 6.853 0 0 0 157.64 29.521 Q 157.96 29.45 158.22 29.355 Q 158.67 29.19 159.03 28.935 A 2.742 2.742 0 0 0 159.561 28.437 A 3.204 3.204 0 0 0 159.675 28.29 A 4.738 4.738 0 0 0 159.922 27.914 Q 160.078 27.651 160.23 27.33 L 161.28 25.23 L 155.52 12.72 A 29.537 29.537 0 0 0 155.332 12.322 Q 155.097 11.836 154.906 11.493 A 8.848 8.848 0 0 0 154.845 11.385 A 4.168 4.168 0 0 0 154.609 11.018 Q 154.432 10.774 154.245 10.605 Q 153.93 10.32 153.54 10.215 A 4.277 4.277 0 0 0 153.225 10.144 Q 153.059 10.112 152.866 10.087 A 9.584 9.584 0 0 0 152.55 10.05 L 152.55 9 L 160.5 9 L 160.5 10.05 A 6.127 6.127 0 0 0 159.83 10.083 Q 158.49 10.232 158.49 11.04 Q 158.49 11.336 158.628 11.891 A 11.495 11.495 0 0 0 158.73 12.27 A 15.625 15.625 0 0 0 159.22 13.709 A 17.513 17.513 0 0 0 159.33 13.98 L 162.63 21.96 L 162.78 21.96 L 165.51 15.21 A 310.642 310.642 0 0 1 165.697 14.737 Q 165.926 14.157 166.1 13.727 A 101.53 101.53 0 0 1 166.155 13.59 A 29.836 29.836 0 0 0 166.275 13.289 Q 166.42 12.919 166.515 12.643 A 9.357 9.357 0 0 0 166.545 12.555 Q 166.68 12.15 166.725 11.88 A 3.349 3.349 0 0 0 166.764 11.555 A 2.75 2.75 0 0 0 166.77 11.37 A 2.168 2.168 0 0 0 166.741 11.002 Q 166.708 10.81 166.637 10.663 A 0.804 0.804 0 0 0 166.335 10.32 Q 165.901 10.051 164.675 10.05 A 6.732 6.732 0 0 0 164.67 10.05 L 164.67 9 L 171.27 9 L 171.27 10.05 Q 170.822 10.05 170.486 10.142 A 1.869 1.869 0 0 0 170.31 10.2 Q 169.922 10.349 169.519 10.87 A 4.13 4.13 0 0 0 169.515 10.875 Q 169.128 11.376 168.66 12.301 A 18.687 18.687 0 0 0 168.615 12.39 A 28.807 28.807 0 0 0 168.353 12.928 Q 167.94 13.8 167.4 15.06 Z M 36.03 16.74 L 36.03 13.8 Q 36.03 12.57 35.97 11.865 A 3.649 3.649 0 0 0 35.913 11.457 Q 35.873 11.253 35.809 11.087 A 1.461 1.461 0 0 0 35.655 10.785 A 1.218 1.218 0 0 0 35.096 10.34 A 1.624 1.624 0 0 0 34.905 10.275 A 5.022 5.022 0 0 0 34.559 10.195 Q 34.138 10.112 33.54 10.05 L 33.54 9 L 38.97 9 L 38.97 18.21 A 112.76 112.76 0 0 0 38.973 19.026 Q 38.981 20.19 39.015 21 A 28.553 28.553 0 0 0 39.04 21.506 Q 39.072 22.035 39.117 22.395 A 5.845 5.845 0 0 0 39.15 22.62 Q 39.192 22.894 39.271 23.086 A 1.105 1.105 0 0 0 39.345 23.235 A 0.896 0.896 0 0 0 39.609 23.512 A 1.163 1.163 0 0 0 39.75 23.595 Q 39.958 23.699 40.263 23.75 A 3.173 3.173 0 0 0 40.455 23.775 Q 40.89 23.82 41.58 23.82 L 41.58 24.87 L 36.63 25.23 L 36.3 21.63 L 36.18 21.63 A 9.662 9.662 0 0 1 35.197 22.975 Q 34.437 23.837 33.555 24.345 A 6.265 6.265 0 0 1 31.252 25.147 A 5.995 5.995 0 0 1 30.45 25.2 Q 29.19 25.2 28.005 24.72 A 5.147 5.147 0 0 1 27.154 24.285 Q 26.581 23.917 26.22 23.43 Q 25.821 22.913 25.596 22.083 A 6.675 6.675 0 0 1 25.485 21.6 A 10.533 10.533 0 0 1 25.357 20.714 Q 25.26 19.791 25.26 18.57 L 25.26 13.8 Q 25.26 12.57 25.2 11.865 A 3.649 3.649 0 0 0 25.143 11.457 Q 25.103 11.253 25.039 11.087 A 1.461 1.461 0 0 0 24.885 10.785 A 1.218 1.218 0 0 0 24.326 10.34 A 1.624 1.624 0 0 0 24.135 10.275 A 5.022 5.022 0 0 0 23.789 10.195 Q 23.368 10.112 22.77 10.05 L 22.77 9 L 28.2 9 L 28.2 17.19 A 22.273 22.273 0 0 0 28.254 18.8 Q 28.368 20.37 28.724 21.371 A 4.426 4.426 0 0 0 28.965 21.93 Q 29.646 23.239 31.054 23.382 A 3.522 3.522 0 0 0 31.41 23.4 Q 34.05 23.4 35.52 19.95 Q 35.665 19.602 35.754 19.309 A 4.927 4.927 0 0 0 35.76 19.29 Q 35.85 18.99 35.91 18.63 A 7.101 7.101 0 0 0 35.963 18.248 A 9.751 9.751 0 0 0 36 17.82 A 12.011 12.011 0 0 0 36.018 17.457 Q 36.024 17.295 36.027 17.116 A 23.063 23.063 0 0 0 36.03 16.74 Z M 76.11 16.74 L 76.11 13.8 Q 76.11 12.57 76.05 11.865 A 3.649 3.649 0 0 0 75.993 11.457 Q 75.953 11.253 75.889 11.087 A 1.461 1.461 0 0 0 75.735 10.785 A 1.218 1.218 0 0 0 75.176 10.34 A 1.624 1.624 0 0 0 74.985 10.275 A 5.022 5.022 0 0 0 74.639 10.195 Q 74.218 10.112 73.62 10.05 L 73.62 9 L 79.05 9 L 79.05 18.21 A 112.76 112.76 0 0 0 79.053 19.026 Q 79.061 20.19 79.095 21 A 28.553 28.553 0 0 0 79.12 21.506 Q 79.152 22.035 79.197 22.395 A 5.845 5.845 0 0 0 79.23 22.62 Q 79.272 22.894 79.351 23.086 A 1.105 1.105 0 0 0 79.425 23.235 A 0.896 0.896 0 0 0 79.689 23.512 A 1.163 1.163 0 0 0 79.83 23.595 Q 80.038 23.699 80.343 23.75 A 3.173 3.173 0 0 0 80.535 23.775 Q 80.97 23.82 81.66 23.82 L 81.66 24.87 L 76.71 25.23 L 76.38 21.63 L 76.26 21.63 A 9.662 9.662 0 0 1 75.277 22.975 Q 74.517 23.837 73.635 24.345 A 6.265 6.265 0 0 1 71.332 25.147 A 5.995 5.995 0 0 1 70.53 25.2 Q 69.27 25.2 68.085 24.72 A 5.147 5.147 0 0 1 67.234 24.285 Q 66.661 23.917 66.3 23.43 Q 65.901 22.913 65.676 22.083 A 6.675 6.675 0 0 1 65.565 21.6 A 10.533 10.533 0 0 1 65.437 20.714 Q 65.34 19.791 65.34 18.57 L 65.34 13.8 Q 65.34 12.57 65.28 11.865 A 3.649 3.649 0 0 0 65.223 11.457 Q 65.183 11.253 65.119 11.087 A 1.461 1.461 0 0 0 64.965 10.785 A 1.218 1.218 0 0 0 64.406 10.34 A 1.624 1.624 0 0 0 64.215 10.275 A 5.022 5.022 0 0 0 63.869 10.195 Q 63.448 10.112 62.85 10.05 L 62.85 9 L 68.28 9 L 68.28 17.19 A 22.273 22.273 0 0 0 68.334 18.8 Q 68.448 20.37 68.804 21.371 A 4.426 4.426 0 0 0 69.045 21.93 Q 69.726 23.239 71.134 23.382 A 3.522 3.522 0 0 0 71.49 23.4 Q 74.13 23.4 75.6 19.95 Q 75.745 19.602 75.834 19.309 A 4.927 4.927 0 0 0 75.84 19.29 Q 75.93 18.99 75.99 18.63 A 7.101 7.101 0 0 0 76.043 18.248 A 9.751 9.751 0 0 0 76.08 17.82 A 12.011 12.011 0 0 0 76.098 17.457 Q 76.104 17.295 76.107 17.116 A 23.063 23.063 0 0 0 76.11 16.74 Z M 85.5 23.85 L 84.9 24.9 L 84.24 24.9 L 84.24 19.74 L 84.99 19.74 Q 86.16 23.97 89.25 23.97 A 4.001 4.001 0 0 0 90.017 23.901 Q 90.481 23.81 90.845 23.6 A 2.224 2.224 0 0 0 91.155 23.385 A 1.852 1.852 0 0 0 91.752 22.444 Q 91.84 22.139 91.856 21.772 A 3.862 3.862 0 0 0 91.86 21.6 Q 91.86 21.213 91.76 20.925 A 1.386 1.386 0 0 0 91.725 20.835 A 1.404 1.404 0 0 0 91.583 20.584 Q 91.444 20.385 91.215 20.175 Q 90.84 19.83 90.165 19.38 A 39.397 39.397 0 0 0 89.8 19.14 Q 89.295 18.811 88.609 18.383 A 124.471 124.471 0 0 0 88.38 18.24 Q 87.503 17.699 86.826 17.224 A 21.441 21.441 0 0 1 86.61 17.07 Q 85.86 16.53 85.35 15.975 A 4.167 4.167 0 0 1 84.801 15.233 A 3.596 3.596 0 0 1 84.585 14.79 A 3.363 3.363 0 0 1 84.386 14.061 Q 84.332 13.725 84.33 13.345 A 5.495 5.495 0 0 1 84.33 13.32 A 5.274 5.274 0 0 1 84.465 12.109 A 4.567 4.567 0 0 1 84.675 11.445 A 4.487 4.487 0 0 1 85.27 10.39 A 4.024 4.024 0 0 1 85.62 9.99 Q 86.22 9.39 87.03 9.045 Q 87.84 8.7 88.8 8.7 Q 89.61 8.7 90.48 8.955 A 6.576 6.576 0 0 1 91.392 9.294 A 5.27 5.27 0 0 1 92.01 9.63 L 92.61 9 L 93.18 9 L 93.18 13.32 L 92.4 13.32 Q 91.812 11.688 91.128 10.891 A 3.244 3.244 0 0 0 90.96 10.71 Q 90.18 9.93 89.04 9.93 A 3.128 3.128 0 0 0 88.346 10.003 Q 87.829 10.12 87.454 10.428 A 1.984 1.984 0 0 0 87.405 10.47 A 1.768 1.768 0 0 0 86.824 11.542 A 2.586 2.586 0 0 0 86.79 11.97 A 2.661 2.661 0 0 0 86.822 12.39 Q 86.86 12.628 86.944 12.828 A 1.646 1.646 0 0 0 86.955 12.855 A 2.104 2.104 0 0 0 87.185 13.249 Q 87.307 13.416 87.469 13.579 A 3.461 3.461 0 0 0 87.48 13.59 A 4.921 4.921 0 0 0 87.832 13.908 Q 88.02 14.063 88.243 14.22 A 8.788 8.788 0 0 0 88.395 14.325 Q 88.777 14.583 89.264 14.89 A 51.726 51.726 0 0 0 89.73 15.18 A 84.409 84.409 0 0 1 90.645 15.762 Q 91.363 16.226 91.935 16.62 A 11.361 11.361 0 0 1 92.646 17.149 Q 92.979 17.419 93.248 17.687 A 6.17 6.17 0 0 1 93.42 17.865 A 4.826 4.826 0 0 1 93.928 18.511 A 3.771 3.771 0 0 1 94.26 19.14 A 3.579 3.579 0 0 1 94.49 20.023 A 4.641 4.641 0 0 1 94.53 20.64 A 5.287 5.287 0 0 1 94.344 22.081 A 3.893 3.893 0 0 1 93.15 23.985 A 4.741 4.741 0 0 1 90.979 25.053 A 6.88 6.88 0 0 1 89.52 25.2 A 6.77 6.77 0 0 1 87.298 24.846 A 5.95 5.95 0 0 1 85.5 23.85 Z M 177.75 16.62 L 182.07 14.73 L 182.07 13.5 Q 182.07 9.84 178.95 9.84 Q 178.44 9.84 178.08 9.93 Q 177.72 10.02 177.48 10.23 Q 177.24 10.44 177.045 10.83 A 4.995 4.995 0 0 0 176.889 11.177 Q 176.812 11.366 176.737 11.585 A 9.641 9.641 0 0 0 176.67 11.79 A 7.102 7.102 0 0 1 176.506 12.188 Q 176.337 12.564 176.171 12.782 A 1.181 1.181 0 0 1 176.025 12.945 A 1.011 1.011 0 0 1 175.653 13.154 Q 175.419 13.23 175.11 13.23 Q 173.61 13.23 173.61 11.73 A 2.252 2.252 0 0 1 174.505 9.905 A 3.769 3.769 0 0 1 175.14 9.495 A 5.853 5.853 0 0 1 176.344 9.042 Q 177.557 8.722 179.257 8.701 A 19.439 19.439 0 0 1 179.49 8.7 A 13.329 13.329 0 0 1 180.961 8.775 Q 182.825 8.983 183.75 9.765 A 3.141 3.141 0 0 1 184.633 11.035 Q 184.842 11.562 184.935 12.226 A 8.329 8.329 0 0 1 185.01 13.38 L 185.01 20.1 A 13.238 13.238 0 0 0 185.05 21.175 Q 185.242 23.52 186.36 23.52 Q 186.78 23.52 187.17 23.415 A 0.952 0.952 0 0 0 187.581 23.178 Q 187.691 23.074 187.787 22.929 A 1.864 1.864 0 0 0 187.83 22.86 L 188.25 23.58 Q 187.89 24.27 186.93 24.735 Q 185.97 25.2 184.92 25.2 A 3.295 3.295 0 0 1 184.161 25.118 A 2.067 2.067 0 0 1 182.955 24.36 A 2.821 2.821 0 0 1 182.504 23.462 Q 182.383 23.067 182.337 22.591 A 6.314 6.314 0 0 1 182.31 21.99 L 182.16 21.99 Q 181.38 23.46 180 24.315 Q 178.62 25.17 176.94 25.17 A 6.002 6.002 0 0 1 175.736 25.057 Q 175.009 24.908 174.447 24.563 A 3.349 3.349 0 0 1 173.97 24.21 Q 172.89 23.25 172.89 21.63 Q 172.89 20.91 173.145 20.25 A 3.531 3.531 0 0 1 173.587 19.448 A 4.534 4.534 0 0 1 173.97 18.99 A 6.1 6.1 0 0 1 174.538 18.468 Q 174.947 18.134 175.47 17.805 Q 176.259 17.309 177.351 16.801 A 26.189 26.189 0 0 1 177.75 16.62 Z M 219.93 16.62 L 224.25 14.73 L 224.25 13.5 Q 224.25 9.84 221.13 9.84 Q 220.62 9.84 220.26 9.93 Q 219.9 10.02 219.66 10.23 Q 219.42 10.44 219.225 10.83 A 4.995 4.995 0 0 0 219.069 11.177 Q 218.992 11.366 218.917 11.585 A 9.641 9.641 0 0 0 218.85 11.79 A 7.102 7.102 0 0 1 218.686 12.188 Q 218.517 12.564 218.351 12.782 A 1.181 1.181 0 0 1 218.205 12.945 A 1.011 1.011 0 0 1 217.833 13.154 Q 217.599 13.23 217.29 13.23 Q 215.79 13.23 215.79 11.73 A 2.252 2.252 0 0 1 216.685 9.905 A 3.769 3.769 0 0 1 217.32 9.495 A 5.853 5.853 0 0 1 218.524 9.042 Q 219.737 8.722 221.437 8.701 A 19.439 19.439 0 0 1 221.67 8.7 A 13.329 13.329 0 0 1 223.141 8.775 Q 225.005 8.983 225.93 9.765 A 3.141 3.141 0 0 1 226.813 11.035 Q 227.022 11.562 227.115 12.226 A 8.329 8.329 0 0 1 227.19 13.38 L 227.19 20.1 A 13.238 13.238 0 0 0 227.23 21.175 Q 227.422 23.52 228.54 23.52 Q 228.96 23.52 229.35 23.415 A 0.952 0.952 0 0 0 229.761 23.178 Q 229.871 23.074 229.967 22.929 A 1.864 1.864 0 0 0 230.01 22.86 L 230.43 23.58 Q 230.07 24.27 229.11 24.735 Q 228.15 25.2 227.1 25.2 A 3.295 3.295 0 0 1 226.341 25.118 A 2.067 2.067 0 0 1 225.135 24.36 A 2.821 2.821 0 0 1 224.684 23.462 Q 224.563 23.067 224.517 22.591 A 6.314 6.314 0 0 1 224.49 21.99 L 224.34 21.99 Q 223.56 23.46 222.18 24.315 Q 220.8 25.17 219.12 25.17 A 6.002 6.002 0 0 1 217.916 25.057 Q 217.189 24.908 216.627 24.563 A 3.349 3.349 0 0 1 216.15 24.21 Q 215.07 23.25 215.07 21.63 Q 215.07 20.91 215.325 20.25 A 3.531 3.531 0 0 1 215.767 19.448 A 4.534 4.534 0 0 1 216.15 18.99 A 6.1 6.1 0 0 1 216.718 18.468 Q 217.127 18.134 217.65 17.805 Q 218.439 17.309 219.531 16.801 A 26.189 26.189 0 0 1 219.93 16.62 Z M 138.63 21.27 L 139.56 22.11 A 8.879 8.879 0 0 1 137.196 24.164 A 7.725 7.725 0 0 1 133.23 25.2 A 9.264 9.264 0 0 1 131.343 25.015 A 7.63 7.63 0 0 1 130.02 24.615 Q 128.58 24.03 127.545 22.965 A 7.346 7.346 0 0 1 126.051 20.69 A 8.489 8.489 0 0 1 125.94 20.415 Q 125.37 18.93 125.37 17.13 A 9.797 9.797 0 0 1 125.647 14.767 A 8.654 8.654 0 0 1 125.97 13.74 A 7.871 7.871 0 0 1 127.148 11.653 A 7.263 7.263 0 0 1 127.665 11.07 Q 128.76 9.96 130.275 9.33 A 8.314 8.314 0 0 1 132.925 8.722 A 9.853 9.853 0 0 1 133.59 8.7 A 8.657 8.657 0 0 1 135.358 8.87 Q 136.476 9.103 137.325 9.657 A 4.856 4.856 0 0 1 138.09 10.275 A 5.093 5.093 0 0 1 139.397 12.552 Q 139.68 13.55 139.68 14.79 Q 139.68 15.076 139.604 15.209 A 0.231 0.231 0 0 1 139.515 15.3 A 0.449 0.449 0 0 1 139.414 15.337 Q 139.244 15.381 138.898 15.389 A 6.927 6.927 0 0 1 138.75 15.39 L 128.88 15.39 A 2.765 2.765 0 0 0 128.839 15.585 Q 128.82 15.694 128.806 15.819 A 5.537 5.537 0 0 0 128.79 15.975 Q 128.76 16.32 128.76 16.74 A 11.263 11.263 0 0 0 128.866 18.317 A 8.842 8.842 0 0 0 129.135 19.575 A 7.192 7.192 0 0 0 129.627 20.824 A 5.724 5.724 0 0 0 130.215 21.75 Q 130.92 22.65 131.895 23.145 A 4.61 4.61 0 0 0 133.664 23.625 A 5.554 5.554 0 0 0 134.07 23.64 Q 135.33 23.64 136.41 23.085 A 5.988 5.988 0 0 0 137.297 22.518 Q 137.707 22.205 138.125 21.796 A 12.053 12.053 0 0 0 138.63 21.27 Z M 48.51 0 L 48.51 20.22 A 23.84 23.84 0 0 0 48.519 20.889 Q 48.538 21.576 48.6 22.05 Q 48.664 22.542 48.827 22.881 A 1.584 1.584 0 0 0 48.975 23.13 A 1.4 1.4 0 0 0 49.574 23.596 A 1.835 1.835 0 0 0 49.785 23.67 A 3.731 3.731 0 0 0 50.187 23.759 Q 50.609 23.83 51.18 23.85 L 51.18 24.9 L 42.9 24.9 L 42.9 23.85 A 9.123 9.123 0 0 0 43.427 23.818 Q 43.96 23.769 44.328 23.659 A 2.73 2.73 0 0 0 44.34 23.655 A 2.118 2.118 0 0 0 44.783 23.465 A 1.619 1.619 0 0 0 45.195 23.13 Q 45.51 22.77 45.615 22.125 A 6.587 6.587 0 0 0 45.67 21.682 Q 45.718 21.169 45.72 20.476 A 20.709 20.709 0 0 0 45.72 20.43 L 45.72 7.5 A 102.991 102.991 0 0 0 45.717 6.723 Q 45.709 5.606 45.675 4.785 A 25.673 25.673 0 0 0 45.651 4.31 Q 45.609 3.599 45.54 3.3 A 1.611 1.611 0 0 0 45.398 2.896 A 1.12 1.12 0 0 0 44.835 2.37 Q 44.298 2.138 42.935 2.13 A 16.748 16.748 0 0 0 42.84 2.13 L 42.84 1.11 L 48.51 0 Z M 144.09 10.89 L 142.29 10.89 L 142.29 9.78 Q 143.507 9.068 144.32 8.356 A 7.696 7.696 0 0 0 144.78 7.92 A 6.272 6.272 0 0 0 146.098 5.86 A 7.206 7.206 0 0 0 146.16 5.7 L 147.03 5.7 L 147.03 9.48 L 151.05 9.48 L 151.05 10.89 L 147.03 10.89 L 147.03 20.01 Q 147.03 21.06 147.135 21.78 Q 147.24 22.5 147.48 22.935 A 1.613 1.613 0 0 0 147.723 23.272 A 1.262 1.262 0 0 0 148.11 23.55 A 1.777 1.777 0 0 0 148.484 23.671 Q 148.664 23.71 148.873 23.723 A 3.607 3.607 0 0 0 149.1 23.73 A 2.98 2.98 0 0 0 149.693 23.674 A 2.143 2.143 0 0 0 150.375 23.415 A 2.444 2.444 0 0 0 150.783 23.103 Q 150.961 22.936 151.137 22.719 A 5.472 5.472 0 0 0 151.41 22.35 L 152.16 22.92 Q 151.74 24.03 150.705 24.615 Q 149.748 25.156 148.369 25.197 A 7.716 7.716 0 0 1 148.14 25.2 A 6.643 6.643 0 0 1 146.995 25.108 Q 146.37 24.998 145.876 24.759 A 3.121 3.121 0 0 1 145.125 24.255 Q 144.09 23.31 144.09 21.54 L 144.09 10.89 Z M 58.83 8.7 L 58.83 20.13 A 21.497 21.497 0 0 0 58.84 20.816 Q 58.863 21.52 58.935 22.005 Q 59.04 22.71 59.34 23.115 A 1.461 1.461 0 0 0 60.001 23.611 A 1.886 1.886 0 0 0 60.18 23.67 A 3.923 3.923 0 0 0 60.594 23.759 Q 61.029 23.83 61.62 23.85 L 61.62 24.9 L 53.01 24.9 L 53.01 23.85 A 9.175 9.175 0 0 0 53.59 23.813 Q 53.864 23.787 54.098 23.744 A 3.937 3.937 0 0 0 54.48 23.655 A 2.141 2.141 0 0 0 54.916 23.478 A 1.557 1.557 0 0 0 55.365 23.115 A 1.606 1.606 0 0 0 55.607 22.714 Q 55.728 22.434 55.785 22.065 A 7.477 7.477 0 0 0 55.845 21.557 Q 55.867 21.293 55.879 20.989 A 17.514 17.514 0 0 0 55.89 20.34 L 55.89 16.5 A 117.445 117.445 0 0 0 55.887 15.668 Q 55.879 14.479 55.845 13.635 Q 55.8 12.51 55.68 12.09 A 1.674 1.674 0 0 0 55.535 11.675 A 1.156 1.156 0 0 0 54.99 11.145 A 1.763 1.763 0 0 0 54.66 11.033 Q 54.075 10.89 52.95 10.89 L 52.95 9.84 L 58.83 8.7 Z M 182.07 18.39 L 182.07 16.02 A 35.629 35.629 0 0 0 180.861 16.511 Q 180.27 16.764 179.759 17.013 A 18.516 18.516 0 0 0 179.175 17.31 Q 178.268 17.792 177.633 18.275 A 6.793 6.793 0 0 0 177.27 18.57 A 5.732 5.732 0 0 0 176.787 19.042 Q 176.548 19.307 176.381 19.572 A 2.975 2.975 0 0 0 176.235 19.83 A 2.926 2.926 0 0 0 175.94 20.787 A 2.736 2.736 0 0 0 175.92 21.12 A 2.42 2.42 0 0 0 176.045 21.914 A 2.056 2.056 0 0 0 176.58 22.74 A 2.232 2.232 0 0 0 177.746 23.32 A 3.168 3.168 0 0 0 178.32 23.37 Q 179.1 23.37 179.775 22.98 A 3.894 3.894 0 0 0 180.797 22.119 A 4.558 4.558 0 0 0 180.96 21.915 A 5.079 5.079 0 0 0 181.556 20.887 A 6.249 6.249 0 0 0 181.77 20.325 A 6.15 6.15 0 0 0 182.07 18.462 A 6.899 6.899 0 0 0 182.07 18.39 Z M 224.25 18.39 L 224.25 16.02 A 35.629 35.629 0 0 0 223.041 16.511 Q 222.45 16.764 221.939 17.013 A 18.516 18.516 0 0 0 221.355 17.31 Q 220.448 17.792 219.813 18.275 A 6.793 6.793 0 0 0 219.45 18.57 A 5.732 5.732 0 0 0 218.967 19.042 Q 218.728 19.307 218.561 19.572 A 2.975 2.975 0 0 0 218.415 19.83 A 2.926 2.926 0 0 0 218.12 20.787 A 2.736 2.736 0 0 0 218.1 21.12 A 2.42 2.42 0 0 0 218.225 21.914 A 2.056 2.056 0 0 0 218.76 22.74 A 2.232 2.232 0 0 0 219.926 23.32 A 3.168 3.168 0 0 0 220.5 23.37 Q 221.28 23.37 221.955 22.98 A 3.894 3.894 0 0 0 222.977 22.119 A 4.558 4.558 0 0 0 223.14 21.915 A 5.079 5.079 0 0 0 223.736 20.887 A 6.249 6.249 0 0 0 223.95 20.325 A 6.15 6.15 0 0 0 224.25 18.462 A 6.899 6.899 0 0 0 224.25 18.39 Z M 129.09 14.01 L 134.61 14.01 Q 135.122 14.01 135.459 13.988 A 6.027 6.027 0 0 0 135.57 13.98 A 2.829 2.829 0 0 0 135.758 13.958 Q 135.981 13.925 136.11 13.86 A 0.548 0.548 0 0 0 136.236 13.774 A 0.424 0.424 0 0 0 136.35 13.605 A 0.856 0.856 0 0 0 136.386 13.47 Q 136.399 13.399 136.405 13.316 A 2.048 2.048 0 0 0 136.41 13.17 A 3.479 3.479 0 0 0 136.276 12.181 A 2.666 2.666 0 0 0 135.525 10.965 A 2.954 2.954 0 0 0 134.207 10.266 Q 133.708 10.14 133.11 10.14 Q 130.015 10.14 129.165 13.671 A 9.277 9.277 0 0 0 129.09 14.01 Z M 55.551 1.808 A 1.858 1.858 0 0 0 55.38 2.61 A 2.241 2.241 0 0 0 55.38 2.634 A 1.792 1.792 0 0 0 55.92 3.93 A 1.84 1.84 0 0 0 56.438 4.299 A 1.858 1.858 0 0 0 57.24 4.47 A 2.241 2.241 0 0 0 57.264 4.47 A 1.792 1.792 0 0 0 58.56 3.93 A 1.84 1.84 0 0 0 58.929 3.412 A 1.858 1.858 0 0 0 59.1 2.61 A 2.241 2.241 0 0 0 59.1 2.586 A 1.792 1.792 0 0 0 58.56 1.29 A 1.84 1.84 0 0 0 58.042 0.921 A 1.858 1.858 0 0 0 57.24 0.75 A 2.241 2.241 0 0 0 57.216 0.75 A 1.792 1.792 0 0 0 55.92 1.29 A 1.84 1.84 0 0 0 55.551 1.808 Z" vector-effect="non-scaling-stroke"/></g></svg>